<?xml version="1.0" encoding="UTF-8"?>
<svg xmlns="http://www.w3.org/2000/svg" width="93" height="84" viewBox="0 0 93 84" fill="none">
  <path d="M91 82V73.1111C91 64.8274 85.3273 57.8669 77.65 55.8934M62.075 3.29226C68.5983 5.92954 73.2 12.3169 73.2 19.7778C73.2 27.2386 68.5983 33.626 62.075 36.2633M68.75 82C68.75 73.7166 68.75 69.5749 67.3951 66.3078C65.5885 61.9518 62.1233 58.4909 57.7618 56.6866C54.4906 55.3333 50.3438 55.3333 42.05 55.3333H28.7C20.4062 55.3333 16.2594 55.3333 12.9882 56.6866C8.62673 58.4909 5.16154 61.9518 3.35494 66.3078C2 69.5749 2 73.7166 2 82M53.175 19.7778C53.175 29.5962 45.2057 37.5555 35.375 37.5555C25.5443 37.5555 17.575 29.5962 17.575 19.7778C17.575 9.95938 25.5443 2 35.375 2C45.2057 2 53.175 9.95938 53.175 19.7778Z" stroke="#279DD9" stroke-width="3" stroke-linecap="round" stroke-linejoin="round"></path>
</svg>
