<?xml version="1.0" encoding="UTF-8"?>
<svg xmlns="http://www.w3.org/2000/svg" width="84" height="84" viewBox="0 0 84 84" fill="none">
  <path d="M42 54C28.7452 54 18 43.2548 18 30V7.77778C18 6.12239 18 5.29469 18.2412 4.63192C18.6456 3.52085 19.5209 2.64562 20.6319 2.24123C21.2947 2 22.1224 2 23.7778 2H60.2222C61.8776 2 62.7053 2 63.3681 2.24123C64.4791 2.64562 65.3544 3.52085 65.7588 4.63192C66 5.29469 66 6.12239 66 7.77778V30C66 43.2548 55.2548 54 42 54ZM42 54V66M66 10H76C77.8638 10 78.7956 10 79.5307 10.3045C80.5108 10.7105 81.2895 11.4892 81.6955 12.4693C82 13.2044 82 14.1362 82 16V18C82 21.7199 82 23.5798 81.5911 25.1058C80.4815 29.2469 77.2469 32.4815 73.1058 33.5911C71.5798 34 69.7199 34 66 34M18 10H8C6.13623 10 5.20435 10 4.46927 10.3045C3.48915 10.7105 2.71046 11.4892 2.30448 12.4693C2 13.2044 2 14.1362 2 16V18C2 21.7199 2 23.5798 2.40889 25.1058C3.5185 29.2469 6.75307 32.4815 10.8942 33.5911C12.4202 34 14.2801 34 18 34M23.7778 82H60.2222C61.2041 82 62 81.2041 62 80.2222C62 72.3675 55.6325 66 47.7778 66H36.2222C28.3675 66 22 72.3675 22 80.2222C22 81.2041 22.7959 82 23.7778 82Z" stroke="#279DD9" stroke-width="3" stroke-linecap="round" stroke-linejoin="round"></path>
</svg>
