<?xml version="1.0" encoding="UTF-8"?>
<svg xmlns="http://www.w3.org/2000/svg" width="180" height="180" viewBox="0 0 180 180" fill="none">
  <path fill-rule="evenodd" clip-rule="evenodd" d="M163.746 61.6328L145.722 45.0689V51.7841L163.746 61.6328ZM163.813 69.8811L145.724 55.2962V61.6212L163.813 69.8835V69.8811ZM163.757 77.1701L145.722 64.8546V70.6918L163.757 77.1701ZM163.707 86.5729L145.722 74.8032V80.3106L163.707 86.5752V86.5729ZM163.843 95.6829L145.722 83.4673V85.2047L145.828 90.3381L163.843 95.6829ZM163.929 104.867L145.722 100.593V93.9478L163.929 104.867ZM163.806 113.401L145.722 103.803V110.101L163.806 113.399V113.401ZM163.813 120.92L145.724 113.343V120.244L163.813 120.923V120.92ZM163.686 129.008L145.724 123.104V128.978L163.686 129.008ZM163.804 53.2568L145.722 35.0273V42.4394L163.804 53.2544V53.2568Z" fill="#E95607"></path>
  <mask id="mask0_3_308" style="mask-type:luminance" maskUnits="userSpaceOnUse" x="58" y="35" width="88" height="95">
    <path d="M145.722 51.7867V45.0714C123.427 44.8415 111.695 52.897 99.5644 61.5216C88.8 69.1752 77.723 77.2749 58.6711 80.4269V83.3513C74.0793 82.1597 87.6009 73.3191 100.25 65.2892C113.361 56.9642 126.82 49.4174 145.72 51.789M145.72 61.6238V55.2987C107.769 55.3266 89.4088 82.4176 58.6711 86.1248V88.6915C91.2492 85.0842 113.6 57.7005 145.72 61.6238ZM145.72 70.6943V64.8571C119.457 64.0232 92.8118 83.3513 62.2176 92.0224C62.1389 93.0653 62.0602 94.1083 61.9815 95.1489C88.3185 88.1178 120.744 69.3936 145.72 70.6943ZM145.72 80.3108C119.642 81.1586 96.6893 90.0921 72.2876 98.1616C71.3547 97.4996 70.4217 96.8399 69.4888 96.1802C92.5641 87.7693 121.332 75.326 145.72 74.8034V80.3108ZM145.826 90.3384C145.791 88.0481 145.754 85.7578 145.72 83.4675C130.263 83.6696 99.3167 93.3975 76.2646 100.684C77.6744 101.725 78.4546 101.267 79.8667 102.308C101.335 97.3904 125.272 90.0132 145.826 90.336V90.3384ZM145.72 100.594V93.948C135.515 94.5938 110.072 99.1139 85.5984 104.926V107.69C106.287 104.152 126.693 101.123 145.72 100.591V100.594ZM85.5984 115.144V112.386C105.074 108.164 125.522 105.07 145.72 103.804V110.101C127.545 109.908 107.525 111.569 85.5984 115.141V115.144ZM85.5984 122.458V120.565C104.495 117.652 124.45 115.367 145.72 113.343V120.245C125.019 120.416 105.741 121.583 85.5984 122.458ZM85.5984 129.369V127.385C112.949 124.948 117.121 124.56 145.72 123.104V128.978C125.679 129.108 105.639 129.238 85.5984 129.369ZM145.722 42.4397V35.0276C100.889 33.9149 101.699 66.8036 58.6735 74.3342V77.3748C75.0215 74.4341 82.1284 71.0614 97.3282 58.7481C111.234 47.4825 124.644 38.4375 145.722 42.442V42.4397Z" fill="white"></path>
  </mask>
  <g mask="url(#mask0_3_308)">
    <path d="M145.828 33.915H58.6733V129.369H145.828V33.915Z" fill="url(#paint0_linear_3_308)"></path>
  </g>
  <mask id="mask1_3_308" style="mask-type:luminance" maskUnits="userSpaceOnUse" x="28" y="79" width="58" height="51">
    <path d="M85.6007 112.386C68.4794 104.168 53.4439 98.9095 28.5977 94.9329C28.5977 97.107 28.7366 98.6563 28.7366 100.833C48.9645 101.801 66.4538 106.498 85.6007 115.144V112.386ZM85.6007 120.565C68.0859 115.601 53.7588 112.886 28.5815 109.404V111.855C28.6163 112.647 28.6533 113.418 28.6533 114.568C49.5548 116.263 66.0534 117.381 85.6007 122.461V120.567V120.565ZM85.6007 127.385C68.2039 125.26 54.0805 124.644 28.7945 123.722L28.7552 128.881C49.5872 129.057 64.2176 129.294 85.5983 129.371V127.387L85.6007 127.385ZM85.6007 104.928C68.8058 93.8156 52.4531 84.3803 28.5815 79.9136V85.8042C48.6265 88.0109 66.6159 96.1709 85.6007 107.692V104.928Z" fill="white"></path>
  </mask>
  <g mask="url(#mask1_3_308)">
    <path d="M85.6007 79.9136H28.5815V129.369H85.6007V79.9136Z" fill="url(#paint1_linear_3_308)"></path>
  </g>
  <path fill-rule="evenodd" clip-rule="evenodd" d="M28.5816 85.8041L28.4983 79.9482L16.5625 94.8375" fill="#1A1A18"></path>
  <path fill-rule="evenodd" clip-rule="evenodd" d="M16.4836 107.26L28.7366 100.83L28.5468 94.9048" fill="#1A1A18"></path>
  <path fill-rule="evenodd" clip-rule="evenodd" d="M28.6533 114.565L28.5584 109.274L17.3356 118.261L28.6533 114.565Z" fill="#1A1A18"></path>
  <path fill-rule="evenodd" clip-rule="evenodd" d="M28.7575 128.879L28.7945 123.72L18.1875 129.169L28.7575 128.879Z" fill="#1A1A18"></path>
  <path d="M16.0623 138.808V132.235C16.0623 131.601 16.0021 131.206 15.8818 131.043C15.7012 130.802 15.2799 130.681 14.6178 130.681V130.409H19.8565V130.681C19.1944 130.681 18.7777 130.797 18.6064 131.027C18.4768 131.199 18.4097 131.598 18.4097 132.23V134.834H19.0416C19.5231 134.834 19.9329 134.732 20.2685 134.525C20.6042 134.318 20.8334 134.019 20.9538 133.626L21.5441 131.649C21.6737 131.231 21.8913 130.878 22.1969 130.595C22.5025 130.311 22.8613 130.167 23.271 130.167C23.6808 130.167 24.0511 130.284 24.322 130.516C24.5928 130.748 24.7271 131.055 24.7271 131.438C24.7271 131.77 24.6461 132.04 24.4864 132.246C24.3266 132.453 24.1206 132.555 23.8683 132.555C23.6159 132.555 23.3983 132.483 23.2432 132.337C23.0881 132.191 23.0094 131.998 23.0094 131.756C23.0094 131.515 22.9099 131.38 22.7085 131.38C22.5974 131.38 22.4886 131.45 22.3775 131.587C22.2663 131.724 22.1807 131.893 22.1205 132.088L21.5487 134.112C21.4885 134.332 21.3519 134.534 21.1413 134.716C20.97 134.857 20.7801 134.971 20.5695 135.064C20.8403 135.164 21.1459 135.387 21.4885 135.728C21.7895 136.03 22.021 136.323 22.1807 136.604L23.5812 139.006C23.9123 139.589 24.1993 139.977 24.4401 140.17C24.6206 140.32 24.8475 140.397 25.1183 140.397V140.669H22.1691L19.9722 136.908C19.6921 136.425 19.4514 136.077 19.25 135.865C18.9884 135.594 18.7083 135.459 18.4073 135.459V138.811C18.4073 139.466 18.4675 139.877 18.5879 140.049C18.7592 140.281 19.1805 140.397 19.8519 140.397V140.669H14.6178V140.397C15.2799 140.397 15.6966 140.281 15.8679 140.051C15.9975 139.87 16.0646 139.459 16.0646 138.815L16.0623 138.808Z" fill="#1A1A18"></path>
  <path d="M29.6117 140.813C28.6579 140.813 27.8824 140.478 27.2875 139.809C26.6902 139.14 26.3916 138.251 26.3916 137.143C26.3916 136.035 26.6879 135.194 27.2805 134.53C27.8732 133.865 28.651 133.533 29.614 133.533C30.577 133.533 31.3548 133.865 31.9474 134.53C32.5401 135.194 32.8364 136.065 32.8364 137.143C32.8364 138.221 32.5401 139.127 31.9474 139.8C31.3548 140.474 30.577 140.813 29.614 140.813H29.6117ZM29.6117 140.193C29.9728 140.193 30.239 139.933 30.4103 139.415C30.5816 138.897 30.6673 138.139 30.6673 137.141C30.6673 135.148 30.3154 134.151 29.614 134.151C29.2436 134.151 28.9751 134.397 28.8084 134.892C28.644 135.384 28.5607 136.135 28.5607 137.143C28.5607 138.151 28.6417 138.911 28.8014 139.424C28.9612 139.937 29.232 140.195 29.614 140.195L29.6117 140.193Z" fill="#1A1A18"></path>
  <path d="M35.1537 133.684H41.0382V133.956C40.7674 133.956 40.5799 134.042 40.4734 134.211C40.3669 134.383 40.316 134.711 40.316 135.194V139.059C40.316 139.563 40.3715 139.909 40.4826 140.102C40.5937 140.292 40.7928 140.39 41.0845 140.39V140.662H37.5936V140.39C37.8737 140.39 38.0728 140.295 38.1885 140.102C38.3043 139.911 38.3621 139.563 38.3621 139.059V134.302H36.5403V138.093C36.5403 138.929 36.4338 139.568 36.2232 140.011C35.9731 140.545 35.5703 140.813 35.0194 140.813C34.7277 140.813 34.4823 140.717 34.2809 140.525C34.0795 140.334 33.98 140.092 33.98 139.8C33.98 139.507 34.0494 139.27 34.1906 139.089C34.3319 138.908 34.5124 138.817 34.7323 138.817C34.9129 138.817 35.0726 138.873 35.2138 138.982C35.3551 139.094 35.4245 139.228 35.4245 139.389C35.4245 139.47 35.4106 139.549 35.3782 139.63C35.3481 139.712 35.318 139.802 35.2879 139.902C35.2879 139.972 35.3342 140.009 35.4245 140.009C35.5958 140.009 35.7324 139.853 35.8389 139.54C35.9454 139.228 35.9963 138.81 35.9963 138.285V134.978C35.9963 134.292 35.7162 133.951 35.1537 133.951V133.679V133.684Z" fill="#1A1A18"></path>
  <path d="M43.0105 139.061V135.196C43.0105 134.683 42.9595 134.348 42.86 134.192C42.7605 134.037 42.5683 133.958 42.2882 133.958V133.686H45.6888V133.958C45.4273 133.958 45.2421 134.041 45.1309 134.206C45.0198 134.374 44.9666 134.703 44.9666 135.196V136.42H46.2699C46.8787 136.42 47.432 136.62 47.9274 137.017C48.4228 137.414 48.6705 137.89 48.6705 138.443C48.6705 139.056 48.4436 139.581 47.9922 140.013C47.5408 140.445 46.9736 140.664 46.2907 140.664H42.2882V140.392C42.5591 140.392 42.7466 140.299 42.8531 140.113C42.9595 139.927 43.0105 139.577 43.0105 139.063V139.061ZM44.9666 137.038V139.816C44.9666 139.927 45.0013 140.011 45.0731 140.071C45.1425 140.132 45.2328 140.162 45.3439 140.162C45.7259 140.162 46.0315 139.997 46.2629 139.663C46.4944 139.33 46.6102 138.938 46.6102 138.485C46.6102 138.032 46.4806 137.665 46.219 137.412C45.9574 137.161 45.6217 137.033 45.2097 137.033H44.9689L44.9666 137.038ZM49.4367 139.061V135.196C49.4367 134.683 49.3858 134.348 49.2863 134.192C49.1867 134.037 48.9946 133.958 48.7145 133.958V133.686H52.1151V133.958C51.8535 133.958 51.6683 134.041 51.5572 134.206C51.4461 134.374 51.3928 134.703 51.3928 135.196V139.061C51.3928 139.565 51.4484 139.911 51.5572 140.104C51.6683 140.294 51.8674 140.392 52.1591 140.392V140.664H48.6682V140.392C48.9483 140.392 49.1474 140.297 49.2631 140.104C49.3788 139.913 49.4367 139.565 49.4367 139.061Z" fill="#1A1A18"></path>
  <path d="M55.4463 140.661H53.4601V140.39C53.7309 140.39 53.9185 140.297 54.0249 140.109C54.1314 139.92 54.1824 139.57 54.1824 139.054V134.954C54.1824 134.29 53.9023 133.958 53.3397 133.958V133.686H56.2288L58.0946 137.941L59.9581 133.686H62.6411V133.958C62.3703 133.958 62.1828 134.044 62.0763 134.213C61.9698 134.385 61.9189 134.713 61.9189 135.196V139.061C61.9189 139.565 61.9744 139.911 62.0855 140.104C62.1967 140.294 62.3957 140.392 62.6874 140.392V140.664H59.1965V140.392C59.4766 140.392 59.6757 140.297 59.7914 140.104C59.9072 139.913 59.9651 139.565 59.9651 139.061V134.954L57.5714 140.617H57.1501L54.7264 135.256V139.061C54.7264 139.565 54.7773 139.911 54.8768 140.104C54.9764 140.294 55.1685 140.392 55.4486 140.392V140.664L55.4463 140.661Z" fill="#1A1A18"></path>
  <path d="M67.8658 136.132V134.878C67.8658 134.667 67.7755 134.493 67.595 134.358C67.4144 134.223 67.1991 134.153 66.9468 134.153C66.6366 134.153 66.3958 134.179 66.2245 134.23C66.0532 134.281 65.9699 134.381 65.9699 134.532C65.9699 134.592 66.0648 134.734 66.2569 134.955C66.3565 135.066 66.4074 135.196 66.4074 135.347C66.4074 135.61 66.331 135.821 66.1805 135.981C66.0301 136.142 65.824 136.223 65.5625 136.223C64.8796 136.223 64.5393 135.882 64.5393 135.196C64.5393 134.713 64.8008 134.316 65.3217 134.002C65.8426 133.691 66.5 133.533 67.294 133.533C68.0881 133.533 68.6691 133.684 69.0997 133.986C69.5812 134.328 69.8219 134.841 69.8219 135.526V139.331C69.8219 139.452 69.852 139.559 69.9122 139.649C69.9724 139.74 70.0673 139.786 70.1993 139.786C70.2988 139.786 70.3914 139.777 70.4771 139.756C70.5627 139.735 70.6553 139.67 70.7549 139.561V139.953C70.5141 140.235 70.2502 140.451 69.9655 140.595C69.6784 140.741 69.3613 140.813 69.0094 140.813C68.7386 140.813 68.4793 140.704 68.2339 140.488C67.9885 140.272 67.8658 140.037 67.8658 139.786C67.5649 140.149 67.2848 140.399 67.0232 140.541C66.6713 140.722 66.2106 140.813 65.6389 140.813C65.2083 140.813 64.8587 140.69 64.5925 140.444C64.3263 140.197 64.1943 139.868 64.1943 139.454C64.1943 138.811 64.4397 138.251 64.9328 137.777C65.4745 137.243 66.4537 136.695 67.8681 136.13L67.8658 136.132ZM67.8658 139.078V136.767C67.4352 136.957 67.0764 137.238 66.7894 137.605C66.5023 137.972 66.3611 138.358 66.3611 138.76C66.3611 139.001 66.4051 139.196 66.4954 139.34C66.5857 139.487 66.7523 139.559 66.9931 139.559C67.1528 139.559 67.3126 139.512 67.4677 139.424C67.6228 139.333 67.757 139.217 67.8658 139.075V139.078Z" fill="#1A1A18"></path>
  <path d="M83.7927 132.855L79.6837 139.424C79.6837 139.747 79.7856 139.988 79.9916 140.149C80.1976 140.309 80.5402 140.39 81.0217 140.39V140.662H75.8895V140.39C76.5516 140.39 76.9683 140.274 77.1396 140.044C77.2692 139.863 77.3364 139.452 77.3364 138.808V132.235C77.3364 131.601 77.2762 131.206 77.1558 131.043C76.9752 130.802 76.5539 130.681 75.8918 130.681V130.409H81.1305V130.681C80.4685 130.681 80.0518 130.797 79.8805 131.027C79.7508 131.199 79.6837 131.598 79.6837 132.233V138.061L83.7973 131.485C83.7973 131.248 83.6885 131.053 83.4732 130.904C83.2556 130.755 82.9177 130.681 82.4547 130.681V130.409H87.5869V130.681C86.9248 130.681 86.5081 130.797 86.3368 131.027C86.2072 131.199 86.14 131.601 86.14 132.233V138.806C86.14 139.459 86.2002 139.872 86.3206 140.042C86.4919 140.274 86.9132 140.388 87.5846 140.388V140.66H82.3459V140.388C83.0079 140.388 83.4246 140.272 83.5959 140.042C83.7256 139.861 83.7927 139.45 83.7927 138.806V132.853V132.855Z" fill="#EE7C00"></path>
  <path d="M93.3672 137.159H91.5454V139.061C91.5454 139.565 91.6009 139.911 91.7097 140.104C91.8208 140.294 92.0199 140.392 92.3116 140.392V140.664H88.8207V140.392C89.1008 140.392 89.2999 140.297 89.4156 140.104C89.5314 139.911 89.5892 139.565 89.5892 139.061V135.196C89.5892 134.683 89.5383 134.348 89.4388 134.192C89.3392 134.037 89.1471 133.958 88.867 133.958V133.686H92.2676V133.958C92.006 133.958 91.8208 134.041 91.7097 134.206C91.5986 134.374 91.5454 134.703 91.5454 135.196V136.736H93.3672V135.196C93.3672 134.683 93.3163 134.348 93.2167 134.192C93.1172 134.037 92.9251 133.958 92.6449 133.958V133.686H96.0456V133.958C95.784 133.958 95.5988 134.041 95.4877 134.206C95.3766 134.374 95.3233 134.703 95.3233 135.196V139.061C95.3233 139.565 95.3789 139.911 95.4877 140.104C95.5988 140.294 95.7979 140.392 96.0896 140.392V140.664H92.5986V140.392C92.8788 140.392 93.0778 140.297 93.1936 140.104C93.3093 139.913 93.3672 139.565 93.3672 139.061V137.159Z" fill="#EE7C00"></path>
  <path d="M101.393 136.737V135.197C101.393 134.693 101.34 134.36 101.236 134.2C101.132 134.04 100.942 133.959 100.671 133.959V133.687H104.072V133.959C103.801 133.959 103.613 134.04 103.507 134.2C103.4 134.36 103.349 134.693 103.349 135.197V136.737C104.072 136.737 104.488 136.491 104.599 135.996L104.886 134.741C104.977 134.37 105.111 134.086 105.291 133.896C105.523 133.654 105.833 133.534 106.224 133.534C106.616 133.534 106.933 133.633 107.143 133.836C107.324 134.007 107.414 134.223 107.414 134.486C107.414 134.727 107.359 134.927 107.248 135.083C107.136 135.239 106.972 135.317 106.75 135.317C106.44 135.317 106.222 135.192 106.102 134.939C105.981 134.688 105.866 134.563 105.754 134.563C105.565 134.563 105.433 134.709 105.363 134.999L105.136 136.042C105.067 136.395 104.921 136.651 104.701 136.813C105.044 136.913 105.31 137.06 105.5 137.25C105.66 137.41 105.817 137.668 105.967 138.019L106.799 139.875C106.947 140.219 107.136 140.391 107.366 140.391V140.662H105.153L104.294 138.623C104.122 138.17 103.967 137.828 103.826 137.596C103.655 137.303 103.495 137.157 103.345 137.157V139.06C103.345 139.564 103.4 139.91 103.509 140.102C103.62 140.293 103.819 140.391 104.111 140.391V140.662H100.62V140.391C100.9 140.391 101.099 140.295 101.215 140.102C101.331 139.912 101.388 139.564 101.388 139.06V137.157C101.247 137.157 101.088 137.303 100.907 137.596C100.777 137.817 100.62 138.161 100.439 138.623L99.5805 140.662H97.3675V140.391C97.4878 140.391 97.5943 140.346 97.6892 140.263C97.7842 140.177 97.8652 140.047 97.9346 139.875L98.7657 138.019C98.9162 137.677 99.0666 137.424 99.2171 137.264C99.4092 137.062 99.6801 136.911 100.032 136.811C99.812 136.651 99.6662 136.393 99.5944 136.04L99.3676 134.997C99.2981 134.707 99.1662 134.56 98.9763 134.56C98.8652 134.56 98.7518 134.686 98.6291 134.937C98.5087 135.187 98.2934 135.315 97.9809 135.315C97.7703 135.315 97.6059 135.236 97.4925 135.081C97.379 134.925 97.3188 134.725 97.3188 134.484C97.3188 134.212 97.4045 133.996 97.5758 133.833C97.7865 133.631 98.0967 133.531 98.5087 133.531C98.8907 133.531 99.1963 133.652 99.4277 133.894C99.6176 134.096 99.7588 134.377 99.8491 134.739L100.136 135.993C100.247 136.486 100.664 136.734 101.386 136.734L101.393 136.737Z" fill="#EE7C00"></path>
  <path d="M113.178 136.037L111.401 139.317C111.401 139.691 111.449 139.962 111.544 140.134C111.639 140.306 111.813 140.392 112.065 140.392V140.664H108.724V140.392C108.995 140.392 109.183 140.299 109.289 140.113C109.396 139.928 109.447 139.577 109.447 139.063V135.198C109.447 134.685 109.396 134.35 109.296 134.195C109.197 134.039 109.005 133.96 108.724 133.96V133.688H112.125V133.96C111.864 133.96 111.678 134.044 111.567 134.209C111.456 134.376 111.401 134.706 111.401 135.198V138.234L113.176 134.927C113.176 134.283 112.965 133.96 112.544 133.96V133.688H115.854V133.96C115.584 133.96 115.396 134.046 115.29 134.216C115.183 134.388 115.132 134.715 115.132 135.198V139.063C115.132 139.568 115.188 139.914 115.299 140.106C115.41 140.297 115.609 140.394 115.901 140.394V140.666H112.41V140.394C112.69 140.394 112.889 140.299 113.005 140.106C113.121 139.916 113.178 139.568 113.178 139.063V136.041V136.037Z" fill="#EE7C00"></path>
  <path d="M121.612 137.159H119.79V139.061C119.79 139.565 119.845 139.911 119.954 140.104C120.065 140.294 120.264 140.392 120.556 140.392V140.664H117.065V140.392C117.345 140.392 117.544 140.297 117.66 140.104C117.776 139.911 117.834 139.565 117.834 139.061V135.196C117.834 134.683 117.783 134.348 117.683 134.192C117.584 134.037 117.392 133.958 117.111 133.958V133.686H120.512V133.958C120.251 133.958 120.065 134.041 119.954 134.206C119.843 134.374 119.79 134.703 119.79 135.196V136.736H121.612V135.196C121.612 134.683 121.561 134.348 121.461 134.192C121.362 134.037 121.17 133.958 120.889 133.958V133.686H124.29V133.958C124.029 133.958 123.843 134.041 123.732 134.206C123.621 134.374 123.568 134.703 123.568 135.196V139.061C123.568 139.565 123.623 139.911 123.732 140.104C123.843 140.294 124.042 140.392 124.334 140.392V140.664H120.843V140.392C121.123 140.392 121.322 140.297 121.438 140.104C121.554 139.913 121.612 139.565 121.612 139.061V137.159Z" fill="#EE7C00"></path>
  <path d="M131.608 136.948H127.89C127.89 137.682 128.019 138.302 128.281 138.806C128.621 139.461 129.124 139.789 129.786 139.789C130.047 139.789 130.29 139.719 130.515 139.577C130.742 139.436 130.95 139.236 131.14 138.973L131.411 139.185C131.119 139.677 130.779 140.06 130.388 140.332C129.915 140.655 129.364 140.815 128.732 140.815C127.739 140.815 126.971 140.427 126.429 139.652C125.957 138.978 125.721 138.137 125.721 137.129C125.721 136.121 126.003 135.259 126.57 134.569C127.137 133.879 127.883 133.536 128.807 133.536C129.679 133.536 130.364 133.821 130.862 134.388C131.36 134.957 131.608 135.731 131.608 136.706V136.948ZM127.89 136.328H129.651C129.651 134.878 129.385 134.154 128.853 134.154C128.513 134.154 128.265 134.318 128.114 134.644C127.964 134.971 127.89 135.533 127.89 136.328Z" fill="#EE7C00"></path>
  <path d="M132.844 133.684H135.643V134.499C135.844 134.249 136.08 134.037 136.351 133.865C136.712 133.645 137.078 133.533 137.45 133.533C138.323 133.533 139.006 133.886 139.497 134.59C139.958 135.254 140.189 136.105 140.189 137.143C140.189 138.181 139.962 139.087 139.511 139.74C139.02 140.455 138.321 140.813 137.418 140.813C137.048 140.813 136.721 140.75 136.439 140.625C136.159 140.499 135.893 140.286 135.64 139.984V142.399C135.64 142.903 135.696 143.25 135.807 143.442C135.918 143.633 136.117 143.73 136.409 143.73V144.002H132.918V143.73C133.198 143.73 133.397 143.635 133.513 143.442C133.629 143.25 133.686 142.903 133.686 142.399V134.985C133.686 134.3 133.406 133.958 132.844 133.958V133.687V133.684ZM135.643 135.466V139.166C135.793 139.408 135.983 139.621 136.214 139.807C136.446 139.993 136.687 140.086 136.937 140.086C137.328 140.086 137.606 139.872 137.772 139.445C137.937 139.017 138.02 138.249 138.02 137.141C138.02 136.165 137.932 135.454 137.756 135.011C137.58 134.567 137.286 134.346 136.876 134.346C136.636 134.346 136.423 134.434 136.237 134.611C136.052 134.788 135.853 135.071 135.643 135.463V135.466Z" fill="#EE7C00"></path>
  <path d="M146.166 136.037L144.388 139.317C144.388 139.691 144.437 139.962 144.532 140.134C144.627 140.306 144.8 140.392 145.053 140.392V140.664H141.712V140.392C141.983 140.392 142.171 140.299 142.277 140.113C142.384 139.928 142.435 139.577 142.435 139.063V135.198C142.435 134.685 142.384 134.35 142.284 134.195C142.185 134.039 141.992 133.96 141.712 133.96V133.688H145.113V133.96C144.851 133.96 144.666 134.044 144.555 134.209C144.444 134.376 144.388 134.706 144.388 135.198V138.234L146.164 134.927C146.164 134.283 145.953 133.96 145.532 133.96V133.688H148.842V133.96C148.571 133.96 148.384 134.046 148.277 134.216C148.171 134.388 148.12 134.715 148.12 135.198V139.063C148.12 139.568 148.176 139.914 148.287 140.106C148.398 140.297 148.597 140.394 148.889 140.394V140.666H145.398V140.394C145.678 140.394 145.877 140.299 145.993 140.106C146.108 139.916 146.166 139.568 146.166 139.063V136.041V136.037Z" fill="#EE7C00"></path>
  <path d="M154.597 137.159H152.775V139.061C152.775 139.565 152.831 139.911 152.94 140.104C153.051 140.294 153.25 140.392 153.542 140.392V140.664H150.051V140.392C150.331 140.392 150.53 140.297 150.646 140.104C150.761 139.911 150.819 139.565 150.819 139.061V135.196C150.819 134.683 150.768 134.348 150.669 134.192C150.569 134.037 150.377 133.958 150.097 133.958V133.686H153.498V133.958C153.236 133.958 153.051 134.041 152.94 134.206C152.829 134.374 152.775 134.703 152.775 135.196V136.736H154.597V135.196C154.597 134.683 154.546 134.348 154.447 134.192C154.347 134.037 154.155 133.958 153.875 133.958V133.686H157.276V133.958C157.014 133.958 156.829 134.041 156.718 134.206C156.607 134.374 156.553 134.703 156.553 135.196V139.061C156.553 139.565 156.609 139.911 156.718 140.104C156.829 140.294 157.028 140.392 157.32 140.392V140.664H153.829V140.392C154.109 140.392 154.308 140.297 154.424 140.104C154.539 139.913 154.597 139.565 154.597 139.061V137.159Z" fill="#EE7C00"></path>
  <path d="M158.604 133.684H164.385V135.435H164.114C163.984 134.681 163.607 134.302 162.984 134.302H161.403V139.059C161.403 139.563 161.459 139.909 161.567 140.102C161.678 140.292 161.878 140.39 162.169 140.39V140.662H158.678V140.39C158.958 140.39 159.158 140.295 159.273 140.102C159.389 139.912 159.447 139.563 159.447 139.059V134.983C159.447 134.297 159.167 133.956 158.604 133.956V133.684Z" fill="#EE7C00"></path>
  <defs>
    <linearGradient id="paint0_linear_3_308" x1="58.1455" y1="81.6419" x2="145.828" y2="81.6419" gradientUnits="userSpaceOnUse">
      <stop stop-color="#EC8100"></stop>
      <stop offset="0.44" stop-color="#ED8020"></stop>
      <stop offset="1" stop-color="#F6A840"></stop>
    </linearGradient>
    <linearGradient id="paint1_linear_3_308" x1="85.4988" y1="106.784" x2="28.6789" y2="102.527" gradientUnits="userSpaceOnUse">
      <stop stop-color="#1A1A18"></stop>
      <stop offset="1" stop-color="#888888"></stop>
    </linearGradient>
  </defs>
</svg>
