<?xml version="1.0" encoding="UTF-8"?>
<svg xmlns="http://www.w3.org/2000/svg" width="180" height="33" viewBox="0 0 180 33" fill="none">
  <g clip-path="url(#clip0_43_79)">
    <mask id="mask0_43_79" style="mask-type:luminance" maskUnits="userSpaceOnUse" x="0" y="0" width="180" height="33">
      <path d="M180 0H0V32.5675H180V0Z" fill="white"></path>
    </mask>
    <g mask="url(#mask0_43_79)">
      <path d="M2.15686 28.9512L22.0212 24.312C22.1877 24.2731 22.6714 24.172 23.0917 24.1953C23.4287 24.2148 23.627 24.2303 23.9362 24.3548C24.3565 24.5259 24.6777 24.8681 24.8601 25.0586L32.0881 32.5521L0.00390625 32.5715L2.16083 28.9512H2.15686Z" fill="#F7A436"></path>
      <path d="M34.0388 32.5483L20.0109 17.9969C19.892 17.8725 19.5589 17.5147 19.3725 17.1453C19.2219 16.8497 19.1347 16.6747 19.091 16.3481C19.0316 15.9048 19.1743 15.4615 19.2496 15.2126L22.2551 5.32764L38.317 32.5677L34.0428 32.5483H34.0388Z" fill="#F7A436"></path>
      <path d="M21.2044 3.63979L15.3681 22.8303C15.3205 22.9937 15.1658 23.4564 14.9359 23.7986C14.7535 24.0747 14.6385 24.2341 14.3729 24.4363C14.0121 24.7086 13.5482 24.8097 13.2904 24.868L3.06091 27.2595L19.0872 0L21.2044 3.63979Z" fill="#878787"></path>
      <path d="M170.587 12.9492H170.107V16.8301C170.107 24.1136 169.437 24.7552 168.311 24.7552H167.221V26.3807C167.221 26.3807 167.586 26.5518 168.438 26.5518C170.996 26.5518 172.122 25.2879 172.122 16.8379V14.7108H177.986V26.4779H180V12.9492H170.587Z" fill="#878787"></path>
      <path d="M156.448 12.9492H155.969V16.8301C155.969 24.1136 155.298 24.7552 154.172 24.7552H153.082V26.3807C153.082 26.3807 153.451 26.5518 154.299 26.5518C156.857 26.5518 157.979 25.2879 157.979 16.8379V14.7108H163.843V26.4779H165.857V12.9492H156.444H156.448Z" fill="#878787"></path>
      <path d="M44.0662 13.727V14.7108V26.4779H46.0803V14.7108H53.1776V26.4779H55.1918V14.7108V13.727V12.9492H44.0662V13.727Z" fill="#878787"></path>
      <path d="M75.179 12.9492H74.7032V16.8301C74.7032 24.1136 74.0332 24.7552 72.9071 24.7552H71.8168V26.3807C71.8168 26.3807 72.1815 26.5518 73.034 26.5518C75.5914 26.5518 76.7174 25.2879 76.7174 16.8379V14.7108H82.5776V26.4779H84.5918V12.9492H75.179Z" fill="#878787"></path>
      <path d="M64.5768 12.6655C60.5008 12.6655 57.6897 15.827 57.6897 19.7273C57.6897 23.6277 60.4136 26.7891 64.5768 26.7891C68.74 26.7891 71.4639 23.6277 71.4639 19.7273C71.4639 15.827 68.6805 12.6655 64.5768 12.6655ZM64.5768 25.0392C61.7141 25.0392 59.7039 22.6594 59.7039 19.7273C59.7039 16.7953 61.7141 14.4154 64.5768 14.4154C67.4395 14.4154 69.414 16.7953 69.414 19.7273C69.414 22.6594 67.4395 25.0392 64.5768 25.0392Z" fill="#878787"></path>
      <path d="M121.228 20.4504H126.981V18.6889H121.228V14.7069H127.643V12.9453H121.228H119.214V26.4779H120.756H121.228H127.944V24.7163H121.228V20.4504Z" fill="#878787"></path>
      <path d="M140.125 12.9453H129.233V14.7069H133.67V26.4779H135.684V14.7069H140.125V12.9453Z" fill="#878787"></path>
      <path d="M145.43 12.8521H144.542L138.685 26.4779H140.731L142.131 23.2192H148.598L149.997 26.4779H152.043L146.187 12.8521H145.43ZM142.876 21.4849L145.362 15.6986L147.848 21.4849H142.876Z" fill="#878787"></path>
      <path d="M98.8537 12.9492H97.5016L89.7383 22.7914V12.9492H87.7241V26.4779H89.2189L96.8395 16.8184V26.4779H98.8537V12.9492Z" fill="#878787"></path>
      <path d="M114.38 12.9492H114.368L109.059 20.3299L103.75 12.9492H101.982V26.4779H103.996V16.3907L108.932 23.2308H109.186H109.19L114.071 16.4646V26.4779H116.085V12.9492H114.38Z" fill="#878787"></path>
    </g>
  </g>
  <defs>
    <clipPath id="clip0_43_79">
      <rect width="180" height="32.5714" fill="white"></rect>
    </clipPath>
  </defs>
</svg>
