<?xml version="1.0" encoding="UTF-8"?>
<svg xmlns="http://www.w3.org/2000/svg" width="116" height="104" viewBox="0 0 116 104" fill="none">
  <path d="M99.2272 77.0076C102.15 74.4122 103.961 70.6565 103.961 66.5496C103.961 65.8168 103.9 65.0687 103.778 64.3053C103.717 63.9847 103.656 63.6488 103.58 63.3282C103.337 62.3053 103.139 61.5267 103.063 61.0992C98.0705 34.687 97.1573 26.9465 100.46 5.20606C100.719 3.52667 66.1383 -1.80158 62.9116 6.64117C62.044 8.87018 61.7092 15.0992 61.7092 23.1297C61.7092 25.5572 61.557 27.9847 61.1917 30.3969C60.5525 34.7023 59.2587 38.9313 56.9605 42.7939C51.1007 52.687 38.8179 60.2901 14.6937 61.2672C10.2798 61.832 7.11402 63.3588 5.04406 65.7404C2.9741 68.1221 2 71.3588 2 75.3588C2 78.5343 3.59813 81.3435 6.0486 82.9924M99.2272 77.0076C96.5941 79.3435 93.0478 80.7328 89.1362 80.5191C86.4117 80.3664 83.2003 80.3664 79.4408 80.6107C77.9797 80.7176 76.4424 80.8549 74.8139 81.0229M99.2272 77.0076C99.5773 77.5267 99.7904 78.1679 99.7904 78.8397V87.6183C99.7904 89.3893 98.3445 90.8397 96.5637 90.8397H78.0406C76.2598 90.8397 74.8139 89.3893 74.8139 87.6183L74.8139 81.0229M74.8139 81.0229C72.2721 81.313 69.5324 81.7099 66.5797 82.229C66.2601 82.2901 65.9252 82.3511 65.5904 82.4122C65.1033 82.5038 64.6163 82.5954 64.1292 82.6717C58.9391 83.5572 53.2772 84.1374 47.4934 84.5038M47.4934 84.5038C34.2822 85.3435 20.5079 85.0229 10.7212 84.5496C8.98611 84.458 7.38798 83.9084 6.0486 82.9924M47.4934 84.5038L47.4935 102M6.0486 82.9924L4.49613 92.0458C3.61335 97.2366 7.60107 102 12.8673 102H116M89.5471 91.6336V102M79.5474 36.0152C79.5474 36.0152 70.3391 26.3358 61.1917 30.4122M73.2158 47.9542C73.2158 47.9542 64.8141 39.374 56.4582 42.9923" stroke="#279DD9" stroke-width="3" stroke-miterlimit="10"></path>
</svg>
