<?xml version="1.0" encoding="UTF-8"?>
<svg xmlns="http://www.w3.org/2000/svg" width="180" height="180" viewBox="0 0 180 180" fill="none">
  <path d="M84.2034 93.846L81.527 108.972C81.3836 109.772 81.0634 110.042 80.2633 110.042H76.7591C75.959 110.042 75.7383 109.772 75.8873 108.972L77.8794 97.6646H75.959L75.5948 99.6844C74.4911 105.909 71.9692 108.558 68.4706 110.213C67.6925 110.578 67.4221 110.384 67.1296 109.7L65.8163 106.737C65.5293 106.053 65.8163 105.716 66.5723 105.274C68.4706 104.204 69.4915 102.891 70.0489 99.7065L71.0973 93.846C71.2187 93.0458 71.5333 92.7754 72.3334 92.7754H83.3205C84.1041 92.8031 84.3249 93.0458 84.2034 93.846Z" fill="#003666"></path>
  <path d="M92.4424 110.042H85.3181C84.518 110.042 84.2973 109.772 84.4408 108.972L87.1171 93.846C87.2386 93.0458 87.5586 92.7754 88.3587 92.7754H91.8629C92.6631 92.7754 92.8839 93.0458 92.7625 93.846L92.1057 97.5432H94.313C98.2311 97.5432 100.538 100.049 99.8315 104.06C99.1251 108.072 96.3603 110.042 92.4424 110.042ZM92.9279 102.405H91.2724L90.7648 105.164H92.4203C92.8171 105.169 93.2025 105.032 93.5063 104.776C93.8102 104.521 94.0124 104.165 94.0758 103.774C94.118 103.604 94.1196 103.428 94.0805 103.258C94.0414 103.088 93.9626 102.93 93.8507 102.797C93.7387 102.663 93.5967 102.558 93.4363 102.49C93.2759 102.422 93.1017 102.393 92.9279 102.405Z" fill="#003666"></path>
  <path d="M120.26 93.8457L118.268 105.153H119.433C120.238 105.153 120.459 105.423 120.31 106.201L119.19 112.669C119.041 113.474 118.726 113.739 117.926 113.739H114.494C113.693 113.739 113.473 113.474 113.622 112.669L114.085 110.02H106.111L105.648 112.669C105.499 113.474 105.184 113.739 104.384 113.739H100.979C100.179 113.739 99.9582 113.474 100.107 112.669L101.25 106.179C101.256 106.024 101.294 105.873 101.363 105.734C101.431 105.595 101.528 105.472 101.648 105.373C101.767 105.274 101.905 105.202 102.055 105.16C102.204 105.118 102.36 105.108 102.513 105.131H103.098C104.704 103.845 105.432 102.372 105.896 99.6842L106.939 93.8237C107.049 93.0456 107.347 92.8027 108.153 92.8027H119.361C120.166 92.8027 120.382 93.0456 120.26 93.8457ZM111.315 99.6842C111.034 101.607 110.397 103.462 109.439 105.153H112.628L113.942 97.6644H111.679L111.315 99.6842Z" fill="#003666"></path>
  <path d="M137.328 110.042H134.017C132.753 110.042 132.412 109.7 132.362 108.938L132.241 107.697H127.672L127.12 108.938C126.783 109.716 126.37 110.042 125.177 110.042H121.673C120.895 110.042 120.823 109.7 121.187 108.994L129.311 93.6525C129.42 93.3634 129.625 93.1209 129.893 92.9661C130.16 92.8112 130.473 92.7536 130.778 92.8027H134.376C135.105 92.8027 135.419 92.9738 135.541 93.6525L138.3 109.021C138.4 109.7 138.084 110.042 137.328 110.042ZM131.81 97.9569H131.568C131.362 99.0924 131.034 100.202 130.591 101.268L129.675 103.254H131.838L131.645 101.312C131.584 100.192 131.632 99.068 131.789 97.9569H131.81Z" fill="#003666"></path>
  <path d="M31.7679 72.6883L31.2824 75.4089C31.1389 76.2144 30.8188 76.4794 30.0187 76.4794H26.5863L24.5941 87.8362C24.4506 88.6363 24.1306 88.9012 23.3305 88.9012H19.8263C19.0262 88.9012 18.8054 88.6363 18.9544 87.8362L20.9631 76.4794H17.5197C16.7139 76.4794 16.4987 76.2144 16.6422 75.4089L17.1279 72.6883C17.2493 71.8826 17.5693 71.6177 18.3694 71.6177H30.8961C31.6686 71.6177 31.8894 71.8826 31.7679 72.6883Z" fill="#003666"></path>
  <path d="M46.2095 72.6881L45.724 75.4087C45.5804 76.2143 45.2604 76.4792 44.4601 76.4792H38.4286L38.2079 77.7429H42.882C43.6821 77.7429 43.9029 78.0133 43.7539 78.8135L43.2682 81.5395C43.1468 82.3396 42.8323 82.61 42.0266 82.61H37.3581L37.1153 83.9732H43.3179C44.1181 83.9732 44.3389 84.238 44.1953 85.0437L43.7042 87.8028C43.5607 88.6031 43.2461 88.8679 42.4405 88.8679H31.6687C30.8685 88.8679 30.6477 88.6031 30.7913 87.8028L33.4676 72.6771C33.589 71.8714 33.9036 71.6064 34.7093 71.6064H45.3101C46.1158 71.6175 46.3475 71.8824 46.2095 72.6881Z" fill="#003666"></path>
  <path d="M61.8706 78.3497C61.1644 82.367 58.2948 84.1164 54.3822 84.1164H51.9707L51.3141 87.8357C51.1706 88.6359 50.8561 88.9007 50.0504 88.9007H46.5517C45.746 88.9007 45.5309 88.6359 45.6744 87.8357L48.3507 72.7099C48.4721 71.9042 48.7867 71.6393 49.5868 71.6393H56.5179C60.4359 71.6173 62.577 74.2882 61.8706 78.3497ZM56.1537 77.864C56.1996 77.6924 56.2036 77.5123 56.1651 77.339C56.1266 77.1655 56.0468 77.004 55.9325 76.868C55.8181 76.732 55.6727 76.6256 55.5085 76.558C55.3444 76.4902 55.1662 76.4631 54.9893 76.4789H53.3338L52.8482 79.2382H54.5037C54.8971 79.2425 55.2793 79.1067 55.5816 78.8548C55.884 78.603 56.0868 78.2518 56.1537 77.864Z" fill="#003666"></path>
  <path d="M78.2822 78.3497C77.5758 82.367 74.7063 84.1164 70.7937 84.1164H68.3878L67.731 87.8357C67.5821 88.6359 67.2676 88.9007 66.4619 88.9007H62.9632C62.1576 88.9007 61.9423 88.6359 62.0859 87.8357L64.7622 72.7099C64.8836 71.9042 65.1982 71.6393 66.0039 71.6393H72.9349C76.8474 71.6173 78.9885 74.2882 78.2822 78.3497ZM72.5706 77.864C72.6169 77.6921 72.6208 77.5113 72.5821 77.3375C72.5432 77.1636 72.4629 77.0017 72.3479 76.8655C72.2331 76.7294 72.0868 76.6232 71.9219 76.5559C71.757 76.4886 71.5782 76.4621 71.4008 76.4789H69.7453L69.2597 79.2382H70.9151C71.3096 79.2439 71.693 79.1086 71.9966 78.8567C72.3001 78.6048 72.5037 78.2527 72.5706 77.864Z" fill="#003666"></path>
  <path d="M96.4486 72.6603L93.7723 87.8358C93.6233 88.636 93.3087 88.9009 92.5086 88.9009H89.0265C88.2263 88.9009 88.0056 88.6139 88.1545 87.7972L88.6623 84.9772C89.1038 82.3781 89.5396 81.7159 90.7814 78.8243H90.5606C89.6288 80.6068 88.5817 82.3267 87.4262 83.9729L84.3359 88.3877C84.2084 88.5657 84.0345 88.7052 83.8329 88.7909C83.6314 88.8766 83.4103 88.905 83.1937 88.8732H79.397C78.5968 88.8732 78.376 88.6084 78.525 87.8082L81.1959 72.6824C81.3229 71.8767 81.6374 71.6119 82.4376 71.6119H85.9418C86.7419 71.6119 86.9626 71.8767 86.8412 72.6824L86.328 75.5023C85.87 78.0793 85.6272 78.8575 84.2145 81.6552H84.4352C85.3911 79.8757 86.4371 78.1462 87.5697 76.4735L90.6599 72.0588C90.7873 71.8808 90.9614 71.7413 91.1629 71.6556C91.3644 71.5699 91.5856 71.5414 91.8022 71.5732H95.5713C96.3714 71.5898 96.5922 71.8602 96.4486 72.6603Z" fill="#003666"></path>
  <path d="M112.788 72.6879L112.297 75.4084C112.154 76.2141 111.839 76.479 111.034 76.479H107.601L105.615 87.8358C105.466 88.636 105.151 88.9009 104.345 88.9009H100.847C100.041 88.9009 99.8258 88.636 99.9693 87.8358L101.961 76.5011H98.5346C97.7343 76.5011 97.5136 76.2362 97.6627 75.4305L98.1482 72.71C98.2697 71.9044 98.5842 71.6394 99.3844 71.6394H111.883C112.689 71.6173 112.904 71.8823 112.788 72.6879Z" fill="#003666"></path>
  <path d="M121.949 71.2812C126.916 71.2812 129.25 74.2942 128.494 78.6482L127.81 82.511C127.031 86.865 123.919 89.249 118.936 89.249C113.953 89.249 111.641 86.3021 112.397 81.9537L113.075 78.0578C113.831 73.7093 116.982 71.2812 121.949 71.2812ZM121.171 76.1649C119.835 76.1649 118.936 76.7996 118.715 78.0136L117.915 82.5386C117.722 83.7526 118.378 84.3873 119.714 84.3873C121.049 84.3873 121.949 83.7526 122.148 82.5386L122.948 78.0136C123.168 76.7996 122.501 76.1374 121.171 76.1374V76.1649Z" fill="#003666"></path>
  <path d="M145.126 78.3497C144.42 82.367 141.55 84.1164 137.632 84.1164H135.226L134.57 87.8357C134.426 88.6359 134.105 88.9007 133.306 88.9007H129.801C129.002 88.9007 128.781 88.6359 128.93 87.8357L131.6 72.7099C131.728 71.9042 132.042 71.6393 132.842 71.6393H139.773C143.691 71.6173 145.827 74.2882 145.126 78.3497ZM139.409 77.864C139.455 77.6924 139.459 77.5123 139.42 77.339C139.382 77.1655 139.302 77.004 139.188 76.868C139.074 76.732 138.929 76.6256 138.763 76.558C138.6 76.4902 138.422 76.4631 138.244 76.4789H136.59L136.098 79.2382H137.753C138.148 79.2439 138.531 79.1086 138.835 78.8567C139.138 78.6048 139.342 78.2527 139.409 77.864Z" fill="#003666"></path>
  <path d="M163.287 72.661L160.611 87.8364C160.467 88.6365 160.153 88.9014 159.347 88.9014H155.871C155.07 88.9014 154.849 88.6145 154.993 87.7978L155.506 84.9779C155.941 82.3788 156.383 81.7166 157.62 78.8249H157.404C156.472 80.6078 155.423 82.3276 154.264 83.9735L151.197 88.3882C151.068 88.5658 150.892 88.7049 150.69 88.7904C150.488 88.876 150.266 88.9048 150.048 88.8739H146.23C145.43 88.8739 145.209 88.6089 145.352 87.8088L148.028 72.6829C148.15 71.8773 148.464 71.6124 149.27 71.6124H152.768C153.574 71.6124 153.795 71.8773 153.668 72.6829L153.161 75.5028C152.698 78.0799 152.454 78.858 151.048 81.6559H151.262C152.22 79.876 153.267 78.1464 154.402 76.4741L157.487 72.0593C157.615 71.8823 157.79 71.7435 157.991 71.6578C158.192 71.5723 158.413 71.5433 158.629 71.5738H162.398C163.215 71.5903 163.436 71.8607 163.287 72.661Z" fill="#003666"></path>
  <path d="M171.94 71.6177H179.07C179.87 71.6177 180.09 71.8826 179.969 72.6883L177.292 87.8362C177.149 88.6363 176.829 88.9012 176.028 88.9012H172.525C171.724 88.9012 171.503 88.6363 171.652 87.8362L172.403 83.5319H172.166C171.343 83.5319 171.002 83.8684 170.587 84.5969L168.788 87.7589C168.237 88.7356 167.646 88.9012 166.305 88.9012H163.028C162.15 88.9012 162.001 88.3934 162.536 87.5658L164.865 83.9733C165.224 83.3853 165.636 82.8312 166.095 82.3179C164.832 81.3246 164.225 79.6193 164.617 77.3513C165.301 73.367 168.127 71.6177 171.94 71.6177ZM170.339 77.6879C170.293 77.8377 170.285 77.9967 170.316 78.1503C170.349 78.3037 170.418 78.4467 170.52 78.5658C170.623 78.6848 170.753 78.7761 170.9 78.8311C171.046 78.8859 171.205 78.9028 171.361 78.8799H173.231L173.645 76.4959H171.774C171.431 76.4785 171.095 76.5892 170.829 76.8065C170.565 77.0239 170.39 77.3321 170.339 77.6713V77.6879Z" fill="#003666"></path>
  <path d="M34.9079 98.8231L29.7316 105.561C28.2693 107.492 20.9023 104.364 13.2594 98.5747C5.61649 92.786 0.616863 86.5282 2.07923 84.5967L7.25544 77.8589C7.04085 78.1737 6.95405 78.5585 7.01263 78.9349C7.13403 80.1269 8.1163 81.8596 9.82147 83.8683C12.3939 86.8288 15.2825 89.4991 18.4357 91.8313C19.9752 93.0011 21.5149 94.0662 22.9882 95.0098L23.1758 95.1258C24.8609 96.1953 26.6161 97.1504 28.4293 97.9843C31.3541 99.3583 33.6553 99.7722 34.6375 99.0879C34.7409 99.0143 34.8322 98.9249 34.9079 98.8231Z" fill="url(#paint0_linear_3_305)"></path>
  <path d="M34.6372 99.0826C33.655 99.7668 31.3263 99.353 28.4294 97.979C31.3761 99.3033 33.655 99.7558 34.6372 99.0826Z" fill="#191917"></path>
  <path d="M34.9081 98.8231C34.8318 98.923 34.7406 99.0106 34.6375 99.0824C33.6553 99.7667 31.3266 99.353 28.4295 97.9788C26.6277 97.1184 24.8723 96.1644 23.1705 95.1203L22.9884 95.0099C21.5094 94.0719 19.9754 93.0068 18.4357 91.8369C15.2823 89.5029 12.3937 86.8308 9.82157 83.8684C8.16607 81.8597 7.13413 80.1269 7.01272 78.935C6.95414 78.5584 7.04094 78.1738 7.25554 77.8589C8.7179 75.9275 16.0849 79.0564 23.7334 84.8452C31.3818 90.6339 36.3704 96.8918 34.9081 98.8231Z" fill="url(#paint1_linear_3_305)"></path>
  <path d="M8.82271 78.8524C11.0301 78.8524 16.5484 81.3357 22.8117 86.0925C25.8051 88.3192 28.5556 90.8551 31.0175 93.6581C32.9766 95.9703 33.5118 97.3113 33.5891 97.8244C33.501 97.8315 33.4123 97.8315 33.3242 97.8244C31.8461 97.6767 30.4106 97.2438 29.0971 96.5497C27.3489 95.7192 25.6451 94.7982 23.9927 93.7905L23.8547 93.7023C22.3481 92.7476 20.8527 91.6992 19.3793 90.5954C16.3241 88.3308 13.5244 85.7404 11.0301 82.8698C9.03793 80.4858 8.65716 79.2773 8.58543 78.8689H8.80616M8.80616 77.3017C8.52349 77.2682 8.23688 77.3006 7.96881 77.3963C7.70073 77.492 7.45847 77.6485 7.26102 77.8536C7.04644 78.1685 6.95963 78.5532 7.01822 78.9296C7.13962 80.1217 8.12189 81.8544 9.82705 83.8631C12.3974 86.8252 15.2841 89.4973 18.4357 91.8315C19.9753 93.0015 21.5149 94.0665 22.9884 95.0102L23.176 95.126C24.876 96.1698 26.6296 97.124 28.4295 97.9845C30.4271 98.9226 32.1267 99.4138 33.3242 99.4138C33.7846 99.4386 34.242 99.3252 34.6375 99.0882C34.7406 99.0162 34.8318 98.9287 34.9079 98.8288C36.3704 96.8974 31.3707 90.6396 23.7332 84.8509C17.6521 80.2154 11.6867 77.2852 8.82271 77.2852L8.80616 77.3017Z" fill="url(#paint2_linear_3_305)"></path>
  <path d="M160.909 94.4585C157.631 99.6112 153.694 104.314 149.199 108.448C144.68 112.576 139.699 116.166 134.354 119.148C129 122.128 123.383 124.608 117.573 126.553C111.757 128.479 105.809 129.981 99.7763 131.045C87.6864 133.16 75.3928 133.871 63.1399 133.164C57.0036 132.834 50.8929 132.134 44.841 131.067C41.806 130.548 38.7708 129.859 35.802 129.103C33.5559 128.49 31.3155 127.817 29.1082 127.028C31.4866 127.398 33.4456 127.58 34.7314 127.745C35.6364 127.85 36.8008 127.48 38.1748 126.708C40.5422 127.337 42.9317 127.916 45.3487 128.363C51.2739 129.54 57.2649 130.356 63.2889 130.808C75.3735 131.763 87.5281 131.32 99.5113 129.489C105.5 128.56 111.415 127.2 117.209 125.422C123 123.618 128.613 121.281 133.974 118.441C139.343 115.601 144.361 112.143 148.928 108.138C153.503 104.123 157.532 99.5233 160.909 94.4585Z" fill="url(#paint3_linear_3_305)"></path>
  <path d="M83.9385 65.8897C85.8457 62.4485 88.4352 59.4329 91.5484 57.0272C94.6737 54.6073 98.1255 52.6417 101.801 51.1888C105.467 49.7193 109.277 48.641 113.169 47.9716C117.058 47.312 120.996 46.987 124.94 47.0004C132.809 47.0942 140.745 48.4462 148.001 51.6358C151.646 53.1981 155.012 55.3433 157.968 57.9874C160.917 60.6181 163.146 63.9596 164.441 67.6942C162.748 64.235 160.279 61.2133 157.228 58.8649C154.207 56.5446 150.86 54.6849 147.295 53.3465C143.739 51.9784 140.055 50.9708 136.297 50.339C132.541 49.6855 128.736 49.3532 124.924 49.3457C121.109 49.3039 117.298 49.5752 113.528 50.1569C109.756 50.7262 106.046 51.65 102.447 52.9161C98.8386 54.1602 95.4041 55.8608 92.2271 57.9764C89.0154 60.0999 86.2085 62.7797 83.9385 65.8897Z" fill="url(#paint4_linear_3_305)"></path>
  <path d="M99.6714 60.0353C101.321 58.482 103.232 57.2322 105.317 56.3435C107.39 55.4292 109.542 54.7034 111.746 54.1748C116.156 53.1276 120.684 52.651 125.215 52.7566C129.757 52.832 134.266 53.5434 138.609 54.8701C140.781 55.5425 142.876 56.4414 144.861 57.552C146.842 58.6444 148.642 60.0368 150.197 61.6798C146.519 59.2661 142.426 57.5559 138.123 56.636C133.867 55.6892 129.526 55.1752 125.166 55.1019C120.797 54.9995 116.428 55.2876 112.11 55.9627C109.95 56.3037 107.816 56.7867 105.719 57.4085C103.595 58.009 101.561 58.8925 99.6714 60.0353Z" fill="url(#paint5_linear_3_305)"></path>
  <path d="M115.117 119.622C109.099 122.91 102.644 125.325 95.9464 126.796C89.2363 128.289 82.3999 129.145 75.5286 129.35C68.6536 129.568 61.7718 129.303 54.934 128.556C51.5127 128.181 48.0968 127.701 44.703 127.088C43.0035 126.768 41.3092 126.442 39.6151 126.045L39.3005 125.973C40.3349 125.275 41.328 124.518 42.275 123.705C43.2628 123.954 44.2505 124.18 45.2438 124.406C48.5549 125.142 51.8843 125.749 55.2321 126.227C61.9469 127.223 68.7238 127.743 75.512 127.783C82.3106 127.842 89.0992 127.255 95.7864 126.028C102.502 124.822 109.011 122.665 115.117 119.622Z" fill="url(#paint6_linear_3_305)"></path>
  <path d="M100.14 119.589C95.5029 121.621 90.6083 123.006 85.5939 123.706C80.5817 124.46 75.525 124.882 70.4571 124.969C65.3912 125.08 60.3143 124.925 55.2484 124.533C51.1777 124.226 47.1254 123.709 43.1082 122.983C43.9469 122.238 44.8243 121.421 45.7294 120.533C48.9355 121.233 52.2189 121.763 55.4913 122.188C60.4579 122.834 65.4519 123.242 70.4626 123.391C75.4762 123.566 80.4961 123.409 85.489 122.922C90.5022 122.485 95.4316 121.364 100.14 119.589Z" fill="url(#paint7_linear_3_305)"></path>
  <path d="M63.5372 97.8302C59.6743 103.58 53.7918 111.979 49.6475 116.488C48.2955 117.961 46.9821 119.319 45.7294 120.549C44.8244 121.438 43.9471 122.254 43.1082 122.999C42.8268 123.248 42.5564 123.49 42.2749 123.717C41.3298 124.529 40.3385 125.287 39.3061 125.985C38.9143 126.244 38.539 126.481 38.2024 126.686C36.8284 127.458 35.664 127.828 34.759 127.723C33.4732 127.569 31.5142 127.375 29.1358 127.006C23.8382 126.178 16.4436 124.484 9.82156 120.5C0.832159 115.147 -0.558466 113.254 0.164437 111.764C2.02964 108.028 5.83179 102.504 6.66506 101.13C7.10101 100.413 8.05569 100.247 8.87239 101.053C10.87 102.968 17.4644 106.836 24.2023 110.059C33.7491 114.622 43.7981 112.537 47.9313 110.875C52.1805 109.176 58.5762 102.377 62.886 97.3666C62.9476 97.2802 63.0408 97.2219 63.1453 97.2042C63.2499 97.1867 63.357 97.2113 63.4434 97.2728C63.5297 97.3342 63.5882 97.4276 63.6058 97.532C63.6233 97.6365 63.5987 97.7438 63.5372 97.8302Z" fill="url(#paint8_linear_3_305)"></path>
  <defs>
    <linearGradient id="paint0_linear_3_305" x1="2.162" y1="80.8884" x2="36.5248" y2="108.85" gradientUnits="userSpaceOnUse">
      <stop offset="0.09" stop-color="#40403F"></stop>
      <stop offset="0.24" stop-color="#686767"></stop>
      <stop offset="0.63" stop-color="#191917"></stop>
      <stop offset="0.98" stop-color="#656564"></stop>
    </linearGradient>
    <linearGradient id="paint1_linear_3_305" x1="3.62446" y1="70.9555" x2="49.4102" y2="116.537" gradientUnits="userSpaceOnUse">
      <stop stop-color="#191917"></stop>
      <stop offset="1" stop-color="#686767"></stop>
    </linearGradient>
    <linearGradient id="paint2_linear_3_305" x1="7.00166" y1="88.344" x2="35.1618" y2="88.344" gradientUnits="userSpaceOnUse">
      <stop stop-color="#3B3A3A"></stop>
      <stop offset="1" stop-color="#191917"></stop>
    </linearGradient>
    <linearGradient id="paint3_linear_3_305" x1="167.067" y1="96.6327" x2="41.2431" y2="137.088" gradientUnits="userSpaceOnUse">
      <stop stop-color="white"></stop>
      <stop offset="1" stop-color="#62B9E9"></stop>
    </linearGradient>
    <linearGradient id="paint4_linear_3_305" x1="83.9385" y1="57.3473" x2="164.429" y2="57.3473" gradientUnits="userSpaceOnUse">
      <stop stop-color="white"></stop>
      <stop offset="1" stop-color="#62B9E9"></stop>
    </linearGradient>
    <linearGradient id="paint5_linear_3_305" x1="99.6714" y1="57.2209" x2="150.197" y2="57.2209" gradientUnits="userSpaceOnUse">
      <stop stop-color="white"></stop>
      <stop offset="1" stop-color="#62B9E9"></stop>
    </linearGradient>
    <linearGradient id="paint6_linear_3_305" x1="163.486" y1="95.076" x2="42.7385" y2="133.903" gradientUnits="userSpaceOnUse">
      <stop stop-color="white"></stop>
      <stop offset="1" stop-color="#62B9E9"></stop>
    </linearGradient>
    <linearGradient id="paint7_linear_3_305" x1="162.051" y1="91.5721" x2="40.4759" y2="130.664" gradientUnits="userSpaceOnUse">
      <stop stop-color="white"></stop>
      <stop offset="1" stop-color="#62B9E9"></stop>
    </linearGradient>
    <linearGradient id="paint8_linear_3_305" x1="17.619" y1="90.5735" x2="46.0495" y2="120.251" gradientUnits="userSpaceOnUse">
      <stop stop-color="#78A3D6"></stop>
      <stop offset="0.33" stop-color="#2281C4"></stop>
      <stop offset="0.82" stop-color="#003666"></stop>
      <stop offset="1" stop-color="#2281C4"></stop>
    </linearGradient>
  </defs>
</svg>
