<?xml version="1.0" encoding="UTF-8"?>
<svg xmlns="http://www.w3.org/2000/svg" width="159" height="84" viewBox="0 0 159 84" fill="none">
  <path d="M146.146 30.0132C146.146 34.6894 141.5 38.9265 133.945 42C126.304 45.1174 115.732 47.0494 104.031 47.0494C92.3298 47.0494 81.7577 45.1174 74.1162 42C66.5616 38.9265 61.916 34.6894 61.916 30.0132M146.146 30.0132C146.146 20.5949 127.281 12.9769 104.031 12.9769C80.7808 12.9769 61.916 20.5949 61.916 30.0132M146.146 30.0132V53.9868C146.146 63.3831 127.281 71.023 104.031 71.023C80.7808 71.023 61.916 63.3831 61.916 53.9868V30.0132M157 30.0132V53.9868C157 73.2404 129.539 82 104.031 82H39.2087C34.9755 82 31.2416 78.7728 30.9811 74.5137C30.8508 72.0988 31.7626 69.9473 33.2605 68.3886C34.6933 66.9396 36.6688 66.0395 38.8396 66.0395H40.229C44.5924 66.0395 48.131 62.461 48.131 58.0483C48.131 53.6356 44.5924 50.0571 40.229 50.0571H21.451C17.1092 50.0571 13.5707 46.5005 13.5707 42.0878C13.5707 39.8705 14.4608 37.8946 15.8935 36.4457C17.3046 34.9967 19.2801 34.1185 21.451 34.1185H40.0119C44.3753 34.1185 47.8922 30.5401 47.8922 26.1493C47.8922 21.7366 44.3536 18.18 40.0119 18.18H34.2157C29.8522 18.18 26.3137 14.6015 26.3137 10.2108C26.3137 8.01537 27.2038 5.99561 28.6366 4.5686C30.0476 3.11964 32.0448 2.21954 34.2157 2.21954H97.2143C99.472 2.06586 101.751 2 104.009 2C129.517 2 156.978 10.7596 156.978 30.0132H157ZM25.6408 74.0307C25.6408 78.432 22.1126 82 17.7605 82C13.4084 82 9.88025 78.432 9.88025 74.0307C9.88025 69.6294 13.4084 66.0615 17.7605 66.0615C22.1126 66.0615 25.6408 69.6294 25.6408 74.0307ZM17.7605 9.96926C17.7605 14.3706 14.2324 17.9385 9.88025 17.9385C5.5281 17.9385 2 14.3706 2 9.96926C2 5.56796 5.5281 2 9.88025 2C14.2324 2 17.7605 5.56796 17.7605 9.96926Z" stroke="#279DD9" stroke-width="3" stroke-miterlimit="10"></path>
</svg>
